<svg xmlns="http://www.w3.org/2000/svg" width="512" height="512" style=""><rect id="backgroundrect" width="100%" height="100%" x="0" y="0" fill="none" stroke="none"/><g class="currentLayer" style=""><title>Layer 1</title><path d="M61.445,467.059C62.367,474.437,69.2,480,77.342,480H434.658c8.141,0,14.975-5.563,15.9-12.941L472.938,288H39.062ZM408,320a8,8,0,0,1,16,0v48a8,8,0,0,1-16,0Zm0,80a8,8,0,0,1,16,0v48a8,8,0,0,1-16,0Zm-32-80a8,8,0,0,1,16,0v48a8,8,0,0,1-16,0Zm0,80a8,8,0,0,1,16,0v48a8,8,0,0,1-16,0Zm-32-80a8,8,0,0,1,16,0v48a8,8,0,0,1-16,0Zm0,80a8,8,0,0,1,16,0v48a8,8,0,0,1-16,0Zm-32-80a8,8,0,0,1,16,0v48a8,8,0,0,1-16,0Zm0,80a8,8,0,0,1,16,0v48a8,8,0,0,1-16,0Zm-32-80a8,8,0,0,1,16,0v48a8,8,0,0,1-16,0Zm0,80a8,8,0,0,1,16,0v48a8,8,0,0,1-16,0Zm-32-80a8,8,0,0,1,16,0v48a8,8,0,0,1-16,0Zm0,80a8,8,0,0,1,16,0v48a8,8,0,0,1-16,0Zm-32-80a8,8,0,0,1,16,0v48a8,8,0,0,1-16,0Zm0,80a8,8,0,0,1,16,0v48a8,8,0,0,1-16,0Zm-32-80a8,8,0,0,1,16,0v48a8,8,0,0,1-16,0Zm0,80a8,8,0,0,1,16,0v48a8,8,0,0,1-16,0Zm-32-80a8,8,0,0,1,16,0v48a8,8,0,0,1-16,0Zm0,80a8,8,0,0,1,16,0v48a8,8,0,0,1-16,0Zm-32-80a8,8,0,0,1,16,0v48a8,8,0,0,1-16,0Zm0,80a8,8,0,0,1,16,0v48a8,8,0,0,1-16,0ZM88,320a8,8,0,0,1,16,0v48a8,8,0,0,1-16,0Zm0,80a8,8,0,0,1,16,0v48a8,8,0,0,1-16,0Z" id="svg_1" class="selected" fill="#ffffff" fill-opacity="1"/><path d="M480,240H372.617L294.892,42.154a16,16,0,0,0-29.784,11.7L338.237,240H173.763L246.892,53.855a16,16,0,0,0-29.784-11.7L139.383,240H32v32H480Z" id="svg_2" class="" fill="#ffffff" fill-opacity="1"/></g></svg>